<svg 
xmlns="http://www.w3.org/2000/svg" 
version="1.1"
 xmlns:xlink="http://www.w3.org/1999/xlink"
  xmlns:svgjs="http://svgjs.dev/svgjs"
viewBox="0 0 745 400">
<path
 d="M51.93716812133789,230.06732177734375C64.90151532491048,222.68761444091797,117.35725847880046,180.20443725585938,129.72325134277344,185.78907775878906C142.08924420674643,191.37371826171875,114.36548614501953,274.3455454508464,126.13312530517578,263.5751647949219C137.90076446533203,252.8047841389974,189.1598014831543,113.58763631184895,200.32908630371094,121.16679382324219C211.49837112426758,128.7459513346354,180.782839457194,307.2550455729167,193.14883422851562,309.05010986328125C205.51482899983725,310.8451741536458,261.95960998535156,136.92346700032553,274.5250549316406,131.9371795654297C287.0904998779297,126.95089213053386,258.5689290364583,281.3263524373372,268.54150390625,279.13238525390625C278.5140787760417,276.9384180704753,323.7895762125651,117.37721761067708,334.3605041503906,118.77337646484375C344.9314320882161,120.16953531901042,321.99449666341144,288.10769271850586,331.9670715332031,287.50933837890625C341.9396464029948,286.91098403930664,383.4255676269531,116.3799565633138,394.1959533691406,115.1832504272461C404.9663391113281,113.98654429117839,386.61681111653644,284.3181317647298,396.5893859863281,280.3291015625C406.5619608561198,276.3400713602702,443.4604746500651,86.8611348470052,454.0314025878906,91.24906921386719C464.6023305257161,95.63700358072917,451.0396372477214,301.07206598917645,460.01495361328125,306.6567077636719C468.9902699788411,312.2413495381673,500.30414326985675,132.33607737223306,507.88330078125,124.75691986083984C515.4624582926432,117.17776234944661,496.7140299479167,258.58889389038086,505.4898986816406,261.1817626953125C514.2657674153646,263.77463150024414,551.3637440999349,143.50535837809244,560.5385131835938,140.3141326904297C569.7132822672526,137.12290700276694,549.1697794596354,237.24757130940756,560.5385131835938,242.03440856933594C571.9072469075521,246.8212458292643,606.412343343099,175.417605082194,628.7509155273438,169.03515625C651.0894877115885,162.652707417806,683.600107828776,197.95562235514322,694.5699462890625,203.73971557617188"
  fill="none"
   stroke-width="20"
    stroke="url(&quot;#SvgjsLinearGradient1004&quot;)"
     stroke-linecap="round">
     </path>
     <defs>
     <linearGradient id="SvgjsLinearGradient1004">
     <stop stop-color="#ffd592" offset="0"></stop>
     <stop stop-color="#ff8973" offset="0.33"></stop>
     <stop stop-color="#04BEBE" offset="0.66"></stop>
     <stop stop-color="#004C8F" offset="1"></stop>
     <!-- <stop stop-color="#9d3025" offset="0"></stop>
     <stop stop-color="#ff9471" offset="0.33"></stop>
     <stop stop-color="#04BEBE" offset="0.66"></stop>
     <stop stop-color="#002966" offset="1"></stop> -->
     </linearGradient>
     </defs>
     </svg>