<svg class="svg-icon" style="width: 1em;height: 1em;vertical-align: middle;fill: currentColor;overflow: hidden;" viewBox="0 0 1024 1024" version="1.1" xmlns="http://www.w3.org/2000/svg"><defs><linearGradient id="grad1" x1="0%" y1="0%" x2="100%" y2="0%"><stop offset="0%" style="stop-color:rgb(255,255,0);stop-opacity:1" /><stop offset="100%" style="stop-color:rgb(255,0,0);stop-opacity:1" /></linearGradient></defs><path d="M173.7728 968.28416c-65.47968 0-118.74816-53.26336-118.74816-118.73792V232.22272c0-65.47968 53.26848-118.74304 118.74816-118.74304h161.86368V73.216a27.84768 27.84768 0 0 1 27.81184-27.81696 27.84768 27.84768 0 0 1 27.81696 27.81184v40.26368h239.63136v-40.26368c0-15.33952 12.48256-27.81696 27.82208-27.81696s27.82208 12.48256 27.82208 27.81696v40.26368h161.86368c65.4848 0 118.75328 53.26848 118.75328 118.74304l5.23264 619.68896c0 64.14848-52.224 116.37248-116.42368 116.37248H173.7728z m-69.87264-118.74816c0 35.9168 33.95584 69.86752 69.87264 69.86752h682.19904c34.08896 0 67.55328-33.21344 67.55328-67.05664l-4.21376-506.38336H103.90016v503.57248zM173.7728 158.976c-34.90816 0-73.2416 38.33344-73.2416 73.2416v59.7504h821.12512v-59.7504c0-34.90816-38.32832-73.2416-73.24672-73.2416H686.5408v50.48832c0 15.3344-12.47744 27.81184-27.81696 27.81184s-27.81696-12.47744-27.81696-27.81184V158.976H391.2704v50.48832a27.84768 27.84768 0 0 1-27.81696 27.81184 27.84256 27.84256 0 0 1-27.81184-27.81184V158.976H173.7728z"  /><path d="M172.8256 458.83904a22.96832 22.96832 0 0 1-22.94272-22.94272 22.96832 22.96832 0 0 1 22.94272-22.94272h458.6496c12.6464 0 22.9376 10.2912 22.9376 22.94272a22.96832 22.96832 0 0 1-22.9376 22.94272h-458.6496zM172.9536 586.04032a24.33536 24.33536 0 0 1-16.7168-8.05376 24.41216 24.41216 0 0 1-6.33344-17.73056 24.54528 24.54528 0 0 1 23.36256-23.36256l246.02624 0.01024c13.52192 0 24.5248 11.008 24.5248 24.54016a24.5504 24.5504 0 0 1-24.3968 24.59648H172.9536zM172.9536 711.62368c-13.24544-0.6656-23.72096-12.24192-23.05024-25.78432a24.54528 24.54528 0 0 1 23.36256-23.36256l246.02624 0.01024c13.52192 0 24.5248 11.008 24.5248 24.54016 0.02048 6.56384-2.51392 12.72832-7.13728 17.37728s-10.77248 7.20896-17.32608 7.2192H172.9536zM175.14496 837.22752c-13.93152 0-25.1904-11.20256-25.26208-24.97024 0.27648-13.42976 11.26912-24.20736 24.4992-24.2176h348.34944a24.54528 24.54528 0 0 1 24.5248 23.10656 24.54528 24.54528 0 0 1-6.29248 17.85344 24.60672 24.60672 0 0 1-18.38592 8.23808l-347.43296-0.01024zM698.50112 761.10848l-0.9216-0.09216a19.968 19.968 0 0 1-12.90752-5.80096l-82.64704-82.64192c-3.89632-4.29056-5.7344-9.49248-5.45792-14.95552a20.34176 20.34176 0 0 1 6.69184-14.14656 20.46464 20.46464 0 0 1 27.4688-0.01024l66.97472 66.96448 81.4336-99.6352 0.32256-0.31744a20.30592 20.30592 0 0 1 14.28992-5.84192c5.44256 0 10.56256 2.11968 14.42304 5.9648a20.46464 20.46464 0 0 1 0.10752 28.86144l-94.88384 116.12672-0.52224 0.45568a20.20352 20.20352 0 0 1-12.87168 5.01248c-0.1024 0.00512-0.90112 0.0512-1.10592 0.0512h-0.39424zM892.76416 508.01664l0.0256 0.03072 0.0256 0.02048z"  /><path d="M892.76416 508.01664l0.0256 0.03072 0.0256 0.02048zM705.7664 836.5312c-27.24352 0-53.49888-6.21056-78.03904-18.4576-72.90368-35.84512-111.31904-116.17792-93.47072-195.4048 17.82784-79.0784 89.51296-136.4736 170.43968-136.4736 12.91776 0 25.9072 1.45408 38.59968 4.32128a16.83968 16.83968 0 0 1 12.44672 19.59424 16.83968 16.83968 0 0 1-16.47616 13.55776c-1.1008 0-2.18112-0.10752-3.23584-0.32256a143.78496 143.78496 0 0 0-30.40768-3.29728c-43.88864 0-84.61312 19.8144-111.7184 54.35392-23.40864 29.8496-33.80224 67.03104-29.26592 104.67328 4.55168 37.66784 23.49056 71.30624 53.3248 94.72 25.28256 19.81952 55.56736 30.29504 87.56736 30.29504 43.9808-0.00512 84.74624-19.8144 111.84128-54.35904 23.40352-29.83936 33.80224-67.01568 29.2608-104.68864-4.54656-37.65248-23.48544-71.28064-53.33504-94.70464a16.7424 16.7424 0 0 1-6.2976-11.24352 16.7936 16.7936 0 0 1 3.49696-12.4416 16.80896 16.80896 0 0 1 13.26592-6.4256c3.75296 0 7.46496 1.28512 10.43456 3.63008 64.91136 51.09248 85.24288 141.80352 48.3584 215.7056-29.8496 59.81696-89.9328 96.96768-156.78976 96.96768z"  /></svg>